<svg viewBox="0 0 584.815 100" xmlns="http://www.w3.org/2000/svg"><g id="svgGroup" stroke-linecap="round" fill-rule="evenodd" font-size="9pt" stroke-width="0.25mm" style="stroke-width:0.25mm"><path d="M 250.879 22.656 L 257.178 22.656 L 267.188 52.295 A 609.459 609.459 0 0 1 267.792 54.169 A 747.948 747.948 0 0 1 268.433 56.177 A 164.334 164.334 0 0 1 269.678 60.278 A 249.097 249.097 0 0 1 270.24 62.25 A 208.191 208.191 0 0 1 270.752 64.111 Q 271.088 65.353 271.308 66.342 A 29.53 29.53 0 0 1 271.485 67.188 L 271.778 67.188 A 50.054 50.054 0 0 1 272.173 65.204 Q 272.576 63.362 273.194 61.06 A 163.942 163.942 0 0 1 274.002 58.163 Q 274.738 55.609 275.684 52.588 L 280.664 36.475 A 23.552 23.552 0 0 0 281.177 34.496 A 27.307 27.307 0 0 0 281.324 33.765 A 23.776 23.776 0 0 0 281.441 33.083 Q 281.557 32.343 281.584 31.805 A 6.194 6.194 0 0 0 281.592 31.494 A 6.461 6.461 0 0 0 281.448 30.082 Q 281.107 28.558 279.956 27.734 Q 278.388 26.611 275.227 26.565 A 18.762 18.762 0 0 0 274.951 26.563 L 274.268 26.563 L 274.268 22.363 L 295.655 22.363 L 295.655 26.563 L 294.385 26.563 A 12.347 12.347 0 0 0 293.219 26.615 Q 292.655 26.668 292.165 26.777 A 6.823 6.823 0 0 0 291.846 26.856 A 4.227 4.227 0 0 0 290.134 27.798 A 5.099 5.099 0 0 0 289.917 28.003 Q 289.063 28.857 288.33 30.371 A 17.228 17.228 0 0 0 287.827 31.527 Q 287.587 32.134 287.346 32.846 A 40.705 40.705 0 0 0 286.866 34.375 L 273.975 75.977 L 265.967 75.977 L 254.053 40.772 L 252.246 34.18 L 238.086 75.977 L 230.176 75.977 L 217.09 31.885 Q 216.504 30.322 215.869 29.297 A 6.497 6.497 0 0 0 215.163 28.35 A 5.111 5.111 0 0 0 214.405 27.661 A 5.025 5.025 0 0 0 212.667 26.847 A 5.807 5.807 0 0 0 212.5 26.807 Q 211.426 26.563 209.961 26.563 L 209.668 26.563 L 209.668 22.363 L 234.375 22.363 L 234.375 26.563 L 233.057 26.563 A 16.319 16.319 0 0 0 231.497 26.632 Q 229.653 26.81 228.565 27.441 A 2.816 2.816 0 0 0 227.301 29.036 Q 227.051 29.77 227.051 30.762 A 6.44 6.44 0 0 0 227.089 31.432 Q 227.152 32.031 227.32 32.764 A 79.02 79.02 0 0 0 227.881 35.059 L 232.569 51.856 A 190.477 190.477 0 0 1 233.069 53.748 A 245.112 245.112 0 0 1 233.594 55.811 Q 234.131 57.959 234.595 60.083 Q 235.059 62.207 235.45 64.063 Q 235.718 65.338 235.917 66.337 A 124.211 124.211 0 0 1 236.084 67.188 L 236.377 67.188 Q 236.545 66.315 236.794 65.246 A 79.892 79.892 0 0 1 237.036 64.233 A 80.588 80.588 0 0 1 237.488 62.488 A 100.383 100.383 0 0 1 238.013 60.62 Q 238.575 58.691 239.209 56.69 A 135.011 135.011 0 0 1 240.161 53.796 A 117.413 117.413 0 0 1 240.479 52.881 L 250.879 22.656 Z M 78.028 71.777 L 78.321 71.777 L 78.321 75.977 L 51.416 75.977 L 51.416 71.777 L 52.198 71.777 A 21.229 21.229 0 0 0 54.248 71.682 A 17.621 17.621 0 0 0 55.396 71.533 A 6.876 6.876 0 0 0 56.943 71.098 A 5.723 5.723 0 0 0 57.984 70.532 Q 59.082 69.775 59.742 68.359 A 6.121 6.121 0 0 0 60.143 67.167 Q 60.401 66.065 60.401 64.6 L 60.401 10.986 A 11.954 11.954 0 0 0 60.323 9.577 Q 60.239 8.874 60.066 8.288 A 5.354 5.354 0 0 0 59.742 7.446 A 5.549 5.549 0 0 0 58.889 6.168 A 4.71 4.71 0 0 0 57.959 5.371 A 6.147 6.147 0 0 0 56.08 4.564 A 7.54 7.54 0 0 0 55.347 4.419 A 20.789 20.789 0 0 0 53.03 4.213 A 24.128 24.128 0 0 0 52.198 4.199 L 51.416 4.199 L 51.416 0 L 69.825 0 L 69.825 21.973 A 84.515 84.515 0 0 1 69.797 24.092 A 96.069 96.069 0 0 1 69.776 24.829 A 70.892 70.892 0 0 1 69.715 26.263 A 56.012 56.012 0 0 1 69.629 27.588 A 1262.091 1262.091 0 0 1 69.434 30.469 L 69.922 30.469 A 17.414 17.414 0 0 1 73.787 25.206 Q 77.278 22.043 82.416 21.5 A 20.946 20.946 0 0 1 84.619 21.387 A 26.813 26.813 0 0 1 88.511 21.656 A 19.86 19.86 0 0 1 92.163 22.534 A 14.119 14.119 0 0 1 96.359 24.814 A 13.134 13.134 0 0 1 97.705 26.05 A 13.907 13.907 0 0 1 100.044 29.435 A 18.465 18.465 0 0 1 101.123 32.129 Q 102.135 35.333 102.273 39.591 A 42.382 42.382 0 0 1 102.295 40.967 L 102.295 64.6 Q 102.295 66.212 102.573 67.386 A 6.394 6.394 0 0 0 102.881 68.359 Q 103.467 69.775 104.493 70.532 Q 105.518 71.289 106.934 71.533 A 16.688 16.688 0 0 0 108.775 71.742 A 20.751 20.751 0 0 0 110.01 71.777 L 110.303 71.777 L 110.303 75.977 L 92.92 75.977 L 92.92 41.455 A 31.164 31.164 0 0 0 92.791 38.549 Q 92.656 37.103 92.377 35.835 A 18.693 18.693 0 0 0 92.334 35.645 A 13.363 13.363 0 0 0 91.601 33.368 A 10.164 10.164 0 0 0 90.454 31.348 A 8.096 8.096 0 0 0 87.061 28.687 A 10.362 10.362 0 0 0 84.889 28.038 Q 83.879 27.847 82.722 27.799 A 19.089 19.089 0 0 0 81.934 27.783 A 14.319 14.319 0 0 0 79.363 28.003 A 10.343 10.343 0 0 0 76.538 28.931 A 10.095 10.095 0 0 0 72.779 32.202 A 13.53 13.53 0 0 0 71.277 35.034 A 17.8 17.8 0 0 0 70.557 37.329 A 25.181 25.181 0 0 0 69.965 40.916 A 32.57 32.57 0 0 0 69.825 43.994 L 69.825 65.088 A 11.954 11.954 0 0 0 69.902 66.498 Q 69.986 67.2 70.16 67.787 A 5.354 5.354 0 0 0 70.484 68.628 Q 71.143 69.971 72.266 70.654 A 6.47 6.47 0 0 0 73.972 71.372 A 8.092 8.092 0 0 0 74.878 71.558 A 20.789 20.789 0 0 0 77.196 71.763 A 24.128 24.128 0 0 0 78.028 71.777 Z M 519.043 71.777 L 519.336 71.777 L 519.336 75.977 L 492.432 75.977 L 492.432 71.777 L 493.213 71.777 A 21.229 21.229 0 0 0 495.264 71.682 A 17.621 17.621 0 0 0 496.411 71.533 A 6.876 6.876 0 0 0 497.958 71.098 A 5.723 5.723 0 0 0 498.999 70.532 Q 500.098 69.775 500.757 68.359 A 6.121 6.121 0 0 0 501.159 67.167 Q 501.416 66.065 501.416 64.6 L 501.416 10.986 A 11.954 11.954 0 0 0 501.338 9.577 Q 501.255 8.874 501.081 8.288 A 5.354 5.354 0 0 0 500.757 7.446 A 5.549 5.549 0 0 0 499.905 6.168 A 4.71 4.71 0 0 0 498.975 5.371 A 6.147 6.147 0 0 0 497.095 4.564 A 7.54 7.54 0 0 0 496.363 4.419 A 20.789 20.789 0 0 0 494.045 4.213 A 24.128 24.128 0 0 0 493.213 4.199 L 492.432 4.199 L 492.432 0 L 510.84 0 L 510.84 21.973 A 84.515 84.515 0 0 1 510.813 24.092 A 96.069 96.069 0 0 1 510.791 24.829 A 70.892 70.892 0 0 1 510.73 26.263 A 56.012 56.012 0 0 1 510.645 27.588 A 1262.091 1262.091 0 0 1 510.45 30.469 L 510.938 30.469 A 17.414 17.414 0 0 1 514.802 25.206 Q 518.293 22.043 523.431 21.5 A 20.946 20.946 0 0 1 525.635 21.387 A 26.813 26.813 0 0 1 529.527 21.656 A 19.86 19.86 0 0 1 533.179 22.534 A 14.119 14.119 0 0 1 537.375 24.814 A 13.134 13.134 0 0 1 538.721 26.05 A 13.907 13.907 0 0 1 541.06 29.435 A 18.465 18.465 0 0 1 542.139 32.129 Q 543.151 35.333 543.289 39.591 A 42.382 42.382 0 0 1 543.311 40.967 L 543.311 64.6 Q 543.311 66.212 543.588 67.386 A 6.394 6.394 0 0 0 543.897 68.359 Q 544.483 69.775 545.508 70.532 Q 546.534 71.289 547.95 71.533 A 16.688 16.688 0 0 0 549.79 71.742 A 20.751 20.751 0 0 0 551.026 71.777 L 551.319 71.777 L 551.319 75.977 L 533.936 75.977 L 533.936 41.455 A 31.164 31.164 0 0 0 533.807 38.549 Q 533.671 37.103 533.393 35.835 A 18.693 18.693 0 0 0 533.35 35.645 A 13.363 13.363 0 0 0 532.616 33.368 A 10.164 10.164 0 0 0 531.47 31.348 A 8.096 8.096 0 0 0 528.076 28.687 A 10.362 10.362 0 0 0 525.904 28.038 Q 524.894 27.847 523.737 27.799 A 19.089 19.089 0 0 0 522.95 27.783 A 14.319 14.319 0 0 0 520.379 28.003 A 10.343 10.343 0 0 0 517.554 28.931 A 10.095 10.095 0 0 0 513.794 32.202 A 13.53 13.53 0 0 0 512.293 35.034 A 17.8 17.8 0 0 0 511.573 37.329 A 25.181 25.181 0 0 0 510.98 40.916 A 32.57 32.57 0 0 0 510.84 43.994 L 510.84 65.088 A 11.954 11.954 0 0 0 510.918 66.498 Q 511.002 67.2 511.175 67.787 A 5.354 5.354 0 0 0 511.499 68.628 Q 512.159 69.971 513.282 70.654 A 6.47 6.47 0 0 0 514.988 71.372 A 8.092 8.092 0 0 0 515.894 71.558 A 20.789 20.789 0 0 0 518.211 71.763 A 24.128 24.128 0 0 0 519.043 71.777 Z M 174.463 71.777 L 174.756 71.777 L 174.756 75.977 L 147.852 75.977 L 147.852 71.777 L 148.682 71.777 A 21.229 21.229 0 0 0 150.732 71.682 A 17.621 17.621 0 0 0 151.88 71.533 A 6.876 6.876 0 0 0 153.427 71.098 A 5.723 5.723 0 0 0 154.468 70.532 Q 155.567 69.775 156.226 68.359 A 6.121 6.121 0 0 0 156.628 67.167 Q 156.885 66.065 156.885 64.6 L 156.885 33.398 A 11.954 11.954 0 0 0 156.807 31.989 Q 156.724 31.286 156.55 30.7 A 5.354 5.354 0 0 0 156.226 29.858 A 5.549 5.549 0 0 0 155.373 28.58 A 4.71 4.71 0 0 0 154.444 27.783 A 6.388 6.388 0 0 0 152.597 26.971 A 7.838 7.838 0 0 0 151.831 26.807 A 18.775 18.775 0 0 0 149.501 26.578 A 21.73 21.73 0 0 0 148.682 26.563 L 148.389 26.563 L 148.389 22.363 L 164.551 22.363 L 165.869 30.469 L 166.358 30.469 A 27.068 27.068 0 0 1 167.758 28.225 Q 168.506 27.153 169.29 26.29 A 15.656 15.656 0 0 1 169.654 25.903 A 15.7 15.7 0 0 1 171.723 24.104 A 12.844 12.844 0 0 1 173.316 23.12 A 13.841 13.841 0 0 1 177.417 21.753 A 26.814 26.814 0 0 1 181.093 21.4 A 30.473 30.473 0 0 1 181.983 21.387 A 23.308 23.308 0 0 1 185.724 21.674 A 17.727 17.727 0 0 1 189.038 22.534 A 13.315 13.315 0 0 1 194.312 26.05 Q 196.485 28.418 197.632 32.129 Q 198.623 35.333 198.758 39.591 A 43.284 43.284 0 0 1 198.78 40.967 L 198.78 64.6 Q 198.78 66.943 199.341 68.359 A 5.758 5.758 0 0 0 199.921 69.472 A 4.304 4.304 0 0 0 200.928 70.532 Q 201.953 71.289 203.369 71.533 A 16.688 16.688 0 0 0 205.21 71.742 A 20.751 20.751 0 0 0 206.446 71.777 L 206.787 71.777 L 206.787 75.977 L 189.356 75.977 L 189.356 41.455 A 31.164 31.164 0 0 0 189.227 38.549 Q 189.091 37.103 188.813 35.835 A 18.693 18.693 0 0 0 188.77 35.645 A 13.363 13.363 0 0 0 188.036 33.368 A 10.164 10.164 0 0 0 186.89 31.348 A 8.096 8.096 0 0 0 183.496 28.687 A 10.362 10.362 0 0 0 181.324 28.038 Q 180.314 27.847 179.157 27.799 A 19.089 19.089 0 0 0 178.369 27.783 Q 174.951 27.783 172.632 29.102 Q 170.313 30.42 168.897 32.666 A 14.775 14.775 0 0 0 167.284 36.227 A 18.001 18.001 0 0 0 166.87 37.842 A 29.626 29.626 0 0 0 166.272 43.094 A 33.393 33.393 0 0 0 166.26 43.994 L 166.26 65.088 A 11.954 11.954 0 0 0 166.338 66.498 Q 166.422 67.2 166.595 67.787 A 5.354 5.354 0 0 0 166.919 68.628 Q 167.578 69.971 168.701 70.654 A 6.47 6.47 0 0 0 170.408 71.372 A 8.092 8.092 0 0 0 171.314 71.558 A 20.789 20.789 0 0 0 173.631 71.763 A 24.128 24.128 0 0 0 174.463 71.777 Z M 15.869 76.757 A 39.833 39.833 0 0 0 19.922 76.953 A 41.782 41.782 0 0 0 24.388 76.723 A 32.174 32.174 0 0 0 30.078 75.61 Q 34.619 74.268 37.842 71.68 Q 41.065 69.092 42.798 65.357 A 17.919 17.919 0 0 0 44.042 61.635 A 22.163 22.163 0 0 0 44.532 56.885 A 21.033 21.033 0 0 0 44.368 54.216 A 16.409 16.409 0 0 0 43.262 49.976 A 17.562 17.562 0 0 0 39.6 44.458 A 23.822 23.822 0 0 0 37.305 42.389 A 29.732 29.732 0 0 0 33.765 39.99 A 56.095 56.095 0 0 0 30.085 38.037 A 73.135 73.135 0 0 0 25.928 36.182 A 99.519 99.519 0 0 1 23.966 35.364 Q 20.884 34.041 18.604 32.788 A 30.203 30.203 0 0 1 17.811 32.337 Q 15.375 30.902 13.794 29.321 A 12.401 12.401 0 0 1 13.406 28.916 A 10.525 10.525 0 0 1 11.182 25.22 A 11.938 11.938 0 0 1 11.156 25.144 Q 10.758 23.96 10.57 22.587 A 19.279 19.279 0 0 1 10.401 19.971 A 14.757 14.757 0 0 1 10.49 18.325 A 11.821 11.821 0 0 1 11.231 15.283 Q 12.061 13.184 13.623 11.694 A 9.729 9.729 0 0 1 15.01 10.597 A 11.41 11.41 0 0 1 17.456 9.399 Q 19.727 8.594 22.608 8.594 Q 24.207 8.594 25.546 8.879 A 9.305 9.305 0 0 1 27.93 9.717 A 11.633 11.633 0 0 1 28.613 10.103 A 9.735 9.735 0 0 1 31.397 12.622 A 10.912 10.912 0 0 1 31.559 12.847 A 11.344 11.344 0 0 1 33.277 16.675 Q 33.838 18.945 33.838 21.289 A 14.763 14.763 0 0 0 34.731 21.263 Q 37.721 21.082 39.576 19.653 A 5.208 5.208 0 0 0 41.471 16.739 A 7.774 7.774 0 0 0 41.7 14.795 A 7.572 7.572 0 0 0 41.509 13.1 A 8.398 8.398 0 0 0 40.454 10.571 A 10.225 10.225 0 0 0 38.808 8.549 A 13.617 13.617 0 0 0 36.817 6.982 A 14.78 14.78 0 0 0 36.61 6.85 Q 34.276 5.38 30.957 4.492 A 22.68 22.68 0 0 0 30.465 4.366 Q 27.175 3.565 22.998 3.565 A 34.252 34.252 0 0 0 20.11 3.684 A 28.159 28.159 0 0 0 14.258 4.785 A 24.078 24.078 0 0 0 12.207 5.511 A 19.876 19.876 0 0 0 7.325 8.325 Q 4.395 10.645 2.759 14.014 A 15.651 15.651 0 0 0 1.584 17.38 A 19.288 19.288 0 0 0 1.123 21.68 Q 1.123 25.781 2.246 29.053 Q 3.369 32.324 5.664 34.985 A 22.295 22.295 0 0 0 7.985 37.297 A 28.037 28.037 0 0 0 11.426 39.819 A 46.02 46.02 0 0 0 15.186 41.925 A 62.483 62.483 0 0 0 19.532 43.897 Q 22.278 45.026 24.462 46.088 A 51.619 51.619 0 0 1 26.88 47.339 A 31.444 31.444 0 0 1 27.688 47.802 Q 28.867 48.501 29.841 49.225 A 17.072 17.072 0 0 1 31.641 50.757 Q 33.448 52.539 34.229 54.639 Q 35.01 56.738 35.01 59.473 A 16.046 16.046 0 0 1 34.659 62.927 A 10.508 10.508 0 0 1 31.226 68.823 Q 28.683 71.005 24.807 71.721 A 22.619 22.619 0 0 1 20.703 72.07 Q 19.11 72.07 17.728 71.8 A 10.923 10.923 0 0 1 14.698 70.752 A 11.928 11.928 0 0 1 10.596 67.236 A 14.379 14.379 0 0 1 9.625 65.721 A 16.366 16.366 0 0 1 8.179 62.158 Q 7.373 59.277 7.227 56.152 Q 5.751 56.152 4.562 56.489 A 6.107 6.107 0 0 0 1.88 58.008 Q 0 59.863 0 62.891 A 15.014 15.014 0 0 0 0.013 63.52 A 12.78 12.78 0 0 0 1.27 68.628 A 11.377 11.377 0 0 0 2.185 70.184 A 12.303 12.303 0 0 0 5.054 73.071 A 14.249 14.249 0 0 0 5.227 73.196 Q 6.538 74.12 8.17 74.833 A 23.093 23.093 0 0 0 11.304 75.928 Q 13.405 76.505 15.869 76.757 Z M 434.717 22.363 L 434.717 65.088 A 11.954 11.954 0 0 0 434.795 66.498 Q 434.879 67.2 435.052 67.787 A 5.354 5.354 0 0 0 435.376 68.628 Q 436.035 69.971 437.159 70.654 A 6.47 6.47 0 0 0 438.865 71.372 A 8.092 8.092 0 0 0 439.771 71.558 A 20.789 20.789 0 0 0 442.088 71.763 A 24.128 24.128 0 0 0 442.92 71.777 L 443.213 71.777 L 443.213 75.977 L 427.344 75.977 L 426.026 67.871 L 425.537 67.871 Q 424.13 70.504 422.449 72.208 A 13.237 13.237 0 0 1 422.193 72.461 A 16.221 16.221 0 0 1 419.71 74.432 A 13.911 13.911 0 0 1 418.311 75.22 A 15.391 15.391 0 0 1 414.014 76.587 A 28.715 28.715 0 0 1 409.934 76.947 A 32.071 32.071 0 0 1 409.326 76.953 A 23.804 23.804 0 0 1 405.701 76.69 A 17.831 17.831 0 0 1 402.295 75.83 Q 399.219 74.707 397.119 72.315 A 14.074 14.074 0 0 1 395.074 69.206 A 19.129 19.129 0 0 1 393.921 66.211 Q 392.973 63.007 392.843 58.749 A 45.206 45.206 0 0 1 392.823 57.373 L 392.823 33.398 A 11.954 11.954 0 0 0 392.745 31.989 Q 392.661 31.286 392.488 30.7 A 5.354 5.354 0 0 0 392.163 29.858 A 5.549 5.549 0 0 0 391.311 28.58 A 4.71 4.71 0 0 0 390.381 27.783 A 6.388 6.388 0 0 0 388.534 26.971 A 7.838 7.838 0 0 0 387.769 26.807 A 18.775 18.775 0 0 0 385.439 26.578 A 21.73 21.73 0 0 0 384.619 26.563 L 384.326 26.563 L 384.326 22.363 L 402.246 22.363 L 402.246 56.885 A 35.972 35.972 0 0 0 402.345 59.607 Q 402.471 61.267 402.759 62.695 Q 403.272 65.234 404.468 66.992 A 7.503 7.503 0 0 0 407.691 69.653 A 9.554 9.554 0 0 0 409.655 70.271 Q 411.042 70.557 412.744 70.557 Q 416.065 70.557 418.433 69.385 A 10.499 10.499 0 0 0 422.339 66.089 A 13.279 13.279 0 0 0 423.947 63.1 A 17.044 17.044 0 0 0 424.61 60.986 A 24.799 24.799 0 0 0 425.202 57.435 A 31.805 31.805 0 0 0 425.342 54.395 L 425.342 33.789 A 13.618 13.618 0 0 0 425.264 32.285 Q 425.181 31.539 425.01 30.915 A 6.027 6.027 0 0 0 424.683 30.005 A 6.153 6.153 0 0 0 423.995 28.84 A 4.666 4.666 0 0 0 422.925 27.808 A 5.96 5.96 0 0 0 421.144 26.985 A 7.383 7.383 0 0 0 420.337 26.807 A 18.555 18.555 0 0 0 418.288 26.591 A 22.397 22.397 0 0 0 417.139 26.563 L 416.846 26.563 L 416.846 22.363 L 434.717 22.363 Z M 462.921 76.788 A 37.231 37.231 0 0 0 466.504 76.953 A 35.957 35.957 0 0 0 470.238 76.766 A 27.954 27.954 0 0 0 474.585 75.977 Q 478.223 75 480.811 73.023 Q 483.399 71.045 484.815 68.115 A 13.7 13.7 0 0 0 485.92 64.727 A 18.229 18.229 0 0 0 486.231 61.279 A 18.907 18.907 0 0 0 486.038 58.511 A 13.833 13.833 0 0 0 485.352 55.762 A 12.239 12.239 0 0 0 482.642 51.465 A 15.057 15.057 0 0 0 482.611 51.433 Q 481.65 50.439 480.414 49.524 A 24.243 24.243 0 0 0 477.979 47.949 A 44.139 44.139 0 0 0 477.16 47.495 Q 475.899 46.812 474.437 46.121 A 80.008 80.008 0 0 0 471.192 44.678 A 197.966 197.966 0 0 1 469.21 43.85 Q 468.265 43.449 467.413 43.074 A 106.251 106.251 0 0 1 465.503 42.212 A 28.286 28.286 0 0 1 464.492 41.719 Q 463.686 41.305 463.001 40.882 A 14.679 14.679 0 0 1 461.646 39.941 Q 460.157 38.77 459.473 37.378 A 6.469 6.469 0 0 1 458.92 35.65 A 8.946 8.946 0 0 1 458.789 34.082 Q 458.789 32.324 459.326 30.859 A 6.498 6.498 0 0 1 461.011 28.32 A 6.796 6.796 0 0 1 462.422 27.314 A 9.13 9.13 0 0 1 463.965 26.66 A 9.869 9.869 0 0 1 464.589 26.481 Q 466.196 26.074 468.311 26.074 A 13.828 13.828 0 0 1 468.595 26.077 Q 469.955 26.105 471.086 26.403 A 6.608 6.608 0 0 1 474.829 28.857 Q 476.905 31.641 476.905 36.67 A 13.193 13.193 0 0 0 477.957 36.629 Q 479.072 36.54 479.996 36.255 A 6.154 6.154 0 0 0 482.251 35.034 A 5.246 5.246 0 0 0 483.827 32.687 A 6.423 6.423 0 0 0 484.131 30.664 Q 484.131 28.809 483.203 27.124 A 7.622 7.622 0 0 0 482.044 25.549 A 9.621 9.621 0 0 0 480.42 24.194 A 11.142 11.142 0 0 0 480.155 24.022 Q 478.373 22.898 475.83 22.217 Q 474.292 21.805 472.492 21.625 A 29.756 29.756 0 0 0 469.532 21.484 A 34.532 34.532 0 0 0 465.964 21.662 A 26.711 26.711 0 0 0 461.817 22.412 A 21.403 21.403 0 0 0 459.342 23.233 A 16.664 16.664 0 0 0 455.86 25.122 Q 453.369 26.904 452.027 29.541 A 11.88 11.88 0 0 0 451.02 32.373 A 14.858 14.858 0 0 0 450.684 35.596 Q 450.684 37.257 450.923 38.685 A 12.754 12.754 0 0 0 451.612 41.235 Q 452.539 43.604 454.395 45.459 A 15.493 15.493 0 0 0 454.519 45.582 Q 455.46 46.502 456.649 47.355 A 25.242 25.242 0 0 0 459.107 48.901 A 59.749 59.749 0 0 0 459.93 49.35 Q 461.194 50.027 462.637 50.725 A 103.844 103.844 0 0 0 465.821 52.197 A 155.574 155.574 0 0 1 467.96 53.141 Q 468.97 53.595 469.86 54.017 A 73.899 73.899 0 0 1 471.826 54.981 A 30.41 30.41 0 0 1 473.06 55.644 Q 473.805 56.069 474.426 56.487 A 13.868 13.868 0 0 1 475.611 57.373 Q 477.002 58.545 477.564 59.888 A 6.066 6.066 0 0 1 477.661 60.135 Q 477.91 60.812 478.025 61.612 A 10.316 10.316 0 0 1 478.125 63.086 A 10.548 10.548 0 0 1 478.107 63.719 A 8.941 8.941 0 0 1 477.393 66.773 A 7.911 7.911 0 0 1 475.269 69.653 A 8.733 8.733 0 0 1 473.712 70.715 A 11.17 11.17 0 0 1 471.826 71.509 A 11.402 11.402 0 0 1 471.688 71.553 Q 470.64 71.874 469.431 72.028 A 18.602 18.602 0 0 1 467.09 72.168 A 17.364 17.364 0 0 1 466.419 72.155 Q 463.829 72.055 461.988 71.167 A 10.263 10.263 0 0 1 461.606 70.973 A 8.691 8.691 0 0 1 458.643 68.433 A 10.151 10.151 0 0 1 457.857 67.175 A 11.524 11.524 0 0 1 456.836 64.404 A 19.416 19.416 0 0 1 456.53 62.786 A 22.911 22.911 0 0 1 456.299 59.473 A 5.077 5.077 0 0 0 456.101 59.477 Q 455.686 59.493 455.225 59.576 A 9.044 9.044 0 0 0 454.322 59.79 A 5.386 5.386 0 0 0 453.748 59.991 A 5.893 5.893 0 0 0 452.271 60.889 A 5.476 5.476 0 0 0 451.336 61.886 A 7.41 7.41 0 0 0 450.66 63.013 A 5.407 5.407 0 0 0 450.427 63.562 Q 450.199 64.195 450.093 64.949 A 10.112 10.112 0 0 0 450 66.357 A 10.734 10.734 0 0 0 450.093 67.788 A 8.357 8.357 0 0 0 451.172 70.972 A 9.133 9.133 0 0 0 452.286 72.474 A 10.484 10.484 0 0 0 454.493 74.292 A 13.996 13.996 0 0 0 457.03 75.526 A 19.273 19.273 0 0 0 459.693 76.294 A 28.132 28.132 0 0 0 462.921 76.788 Z M 341.26 38.672 L 341.26 64.6 A 21.441 21.441 0 0 0 341.3 65.957 Q 341.378 67.169 341.602 68.066 A 6.513 6.513 0 0 0 341.944 69.089 Q 342.241 69.771 342.676 70.264 A 3.783 3.783 0 0 0 344.103 71.262 A 4.794 4.794 0 0 0 344.605 71.436 Q 345.801 71.777 347.461 71.777 L 347.754 71.777 L 347.754 75.977 L 334.229 75.977 L 332.666 67.383 L 331.836 67.383 A 96.505 96.505 0 0 1 329.921 69.874 A 78.804 78.804 0 0 1 328.809 71.24 A 17.653 17.653 0 0 1 325.641 74.228 A 16.578 16.578 0 0 1 325.586 74.268 A 13.8 13.8 0 0 1 322.155 76.059 A 15.75 15.75 0 0 1 321.607 76.245 A 13.824 13.824 0 0 1 319.49 76.729 Q 318.409 76.894 317.174 76.937 A 25.848 25.848 0 0 1 316.26 76.953 A 20.404 20.404 0 0 1 312.008 76.523 A 17.763 17.763 0 0 1 310.083 76.001 A 13.005 13.005 0 0 1 305.152 73.071 A 12.947 12.947 0 0 1 302.569 69.571 A 15.927 15.927 0 0 1 301.905 68.091 A 16.291 16.291 0 0 1 301.026 64.813 Q 300.733 63.037 300.733 60.986 Q 300.733 53.027 306.397 49.17 Q 312.061 45.313 323.535 44.971 L 331.836 44.678 L 331.836 38.672 A 43.147 43.147 0 0 0 331.744 35.782 A 33.938 33.938 0 0 0 331.543 33.716 A 11.766 11.766 0 0 0 331.118 31.727 A 8.848 8.848 0 0 0 330.274 29.81 A 6.484 6.484 0 0 0 327.747 27.416 A 7.859 7.859 0 0 0 327.466 27.271 A 7.655 7.655 0 0 0 325.846 26.703 Q 325.051 26.514 324.111 26.431 A 17.78 17.78 0 0 0 322.559 26.367 A 16.871 16.871 0 0 0 320.708 26.462 Q 319.785 26.565 319.011 26.776 A 7.529 7.529 0 0 0 317.896 27.173 Q 316.114 27.979 315.113 29.443 A 8.096 8.096 0 0 0 314.048 31.711 A 10.162 10.162 0 0 0 313.77 32.91 A 23.816 23.816 0 0 0 313.478 35.512 A 29.563 29.563 0 0 0 313.428 37.256 Q 309.281 37.256 307.108 35.842 A 5.565 5.565 0 0 1 307.105 35.84 A 4.503 4.503 0 0 1 305.238 33.271 Q 304.999 32.48 304.947 31.513 A 10.287 10.287 0 0 1 304.932 30.957 A 7.864 7.864 0 0 1 305.233 28.737 A 6.417 6.417 0 0 1 306.348 26.563 A 9.429 9.429 0 0 1 308.528 24.562 A 12.445 12.445 0 0 1 310.23 23.608 A 19.18 19.18 0 0 1 313.077 22.562 A 25.903 25.903 0 0 1 315.967 21.924 A 40.889 40.889 0 0 1 320.673 21.439 A 48.526 48.526 0 0 1 322.95 21.387 Q 327.539 21.387 330.957 22.29 A 15.277 15.277 0 0 1 334.184 23.527 A 12.346 12.346 0 0 1 336.67 25.244 A 11.884 11.884 0 0 1 339.422 28.928 A 14.96 14.96 0 0 1 340.113 30.591 Q 341.056 33.299 341.224 37.014 A 36.705 36.705 0 0 1 341.26 38.672 Z M 354.346 22.363 L 372.266 22.363 L 372.266 76.758 Q 372.266 81.831 371.436 85.616 A 24.118 24.118 0 0 1 370.801 87.964 Q 369.416 92.189 366.983 94.798 A 13.479 13.479 0 0 1 366.7 95.093 A 14.866 14.866 0 0 1 360.425 98.877 A 25.176 25.176 0 0 1 355.346 99.867 A 30.993 30.993 0 0 1 352.442 100 L 350.83 100 L 350.83 95.264 L 351.563 95.264 A 13.677 13.677 0 0 0 354.102 95.038 A 10.675 10.675 0 0 0 356.348 94.36 A 7.825 7.825 0 0 0 359.226 92.204 A 9.9 9.9 0 0 0 359.888 91.333 Q 361.328 89.209 362.085 85.669 A 30.013 30.013 0 0 0 362.546 82.77 Q 362.722 81.215 362.793 79.422 A 64.678 64.678 0 0 0 362.842 76.856 L 362.842 33.398 A 11.954 11.954 0 0 0 362.764 31.989 Q 362.681 31.286 362.507 30.7 A 5.354 5.354 0 0 0 362.183 29.858 A 5.549 5.549 0 0 0 361.33 28.58 A 4.71 4.71 0 0 0 360.401 27.783 A 6.388 6.388 0 0 0 358.554 26.971 A 7.838 7.838 0 0 0 357.788 26.807 A 18.775 18.775 0 0 0 355.458 26.578 A 21.73 21.73 0 0 0 354.639 26.563 L 354.346 26.563 L 354.346 22.363 Z M 115.381 71.777 L 116.7 71.777 A 22.494 22.494 0 0 0 118.998 71.664 A 19.447 19.447 0 0 0 119.849 71.558 A 7.626 7.626 0 0 0 121.368 71.179 A 6.22 6.22 0 0 0 122.461 70.654 A 4.496 4.496 0 0 0 123.882 69.263 A 5.768 5.768 0 0 0 124.243 68.628 A 5.711 5.711 0 0 0 124.669 67.403 Q 124.903 66.397 124.903 65.088 L 124.903 33.398 A 11.954 11.954 0 0 0 124.825 31.989 Q 124.741 31.286 124.568 30.7 A 5.354 5.354 0 0 0 124.243 29.858 A 5.549 5.549 0 0 0 123.391 28.58 A 4.71 4.71 0 0 0 122.461 27.783 A 6.388 6.388 0 0 0 120.614 26.971 A 7.838 7.838 0 0 0 119.849 26.807 A 18.775 18.775 0 0 0 117.519 26.578 A 21.73 21.73 0 0 0 116.7 26.563 L 116.407 26.563 L 116.407 22.363 L 134.278 22.363 L 134.278 64.6 A 13.605 13.605 0 0 0 134.352 66.07 Q 134.43 66.787 134.59 67.388 A 5.892 5.892 0 0 0 134.937 68.359 A 6.075 6.075 0 0 0 135.651 69.542 A 4.722 4.722 0 0 0 136.695 70.532 Q 137.793 71.289 139.307 71.533 A 19.474 19.474 0 0 0 141.863 71.769 A 22.029 22.029 0 0 0 142.481 71.777 L 143.799 71.777 L 143.799 75.977 L 115.381 75.977 L 115.381 71.777 Z M 556.397 71.777 L 557.715 71.777 A 22.494 22.494 0 0 0 560.013 71.664 A 19.447 19.447 0 0 0 560.865 71.558 A 7.626 7.626 0 0 0 562.384 71.179 A 6.22 6.22 0 0 0 563.477 70.654 A 4.496 4.496 0 0 0 564.897 69.263 A 5.768 5.768 0 0 0 565.259 68.628 A 5.711 5.711 0 0 0 565.684 67.403 Q 565.918 66.397 565.918 65.088 L 565.918 33.398 A 11.954 11.954 0 0 0 565.84 31.989 Q 565.757 31.286 565.583 30.7 A 5.354 5.354 0 0 0 565.259 29.858 A 5.549 5.549 0 0 0 564.407 28.58 A 4.71 4.71 0 0 0 563.477 27.783 A 6.388 6.388 0 0 0 561.63 26.971 A 7.838 7.838 0 0 0 560.865 26.807 A 18.775 18.775 0 0 0 558.535 26.578 A 21.73 21.73 0 0 0 557.715 26.563 L 557.422 26.563 L 557.422 22.363 L 575.293 22.363 L 575.293 64.6 A 13.605 13.605 0 0 0 575.368 66.07 Q 575.446 66.787 575.606 67.388 A 5.892 5.892 0 0 0 575.952 68.359 A 6.075 6.075 0 0 0 576.667 69.542 A 4.722 4.722 0 0 0 577.71 70.532 Q 578.809 71.289 580.323 71.533 A 19.474 19.474 0 0 0 582.879 71.769 A 22.029 22.029 0 0 0 583.496 71.777 L 584.815 71.777 L 584.815 75.977 L 556.397 75.977 L 556.397 71.777 Z M 331.836 56.885 L 331.836 48.779 L 325.44 49.072 A 41.635 41.635 0 0 0 322.449 49.312 Q 320.998 49.484 319.758 49.756 A 19.745 19.745 0 0 0 318.335 50.122 Q 315.737 50.899 314.048 52.242 A 9.017 9.017 0 0 0 313.721 52.515 Q 311.963 54.053 311.206 56.299 A 13.951 13.951 0 0 0 310.617 58.873 A 19.28 19.28 0 0 0 310.45 61.475 A 17.707 17.707 0 0 0 310.624 64.049 Q 310.817 65.362 311.226 66.418 A 7.086 7.086 0 0 0 312.427 68.482 A 6.184 6.184 0 0 0 315.338 70.356 Q 316.366 70.683 317.619 70.769 A 13.562 13.562 0 0 0 318.555 70.801 A 16.235 16.235 0 0 0 321.783 70.492 A 13.322 13.322 0 0 0 324.048 69.824 A 11.851 11.851 0 0 0 327.688 67.585 A 11.291 11.291 0 0 0 328.247 67.041 A 11.853 11.853 0 0 0 330.532 63.59 A 14.13 14.13 0 0 0 330.909 62.647 A 15.734 15.734 0 0 0 331.722 59.044 A 19.763 19.763 0 0 0 331.836 56.885 Z M 361.537 4.916 A 11.627 11.627 0 0 0 361.475 6.152 Q 361.475 7.196 361.63 8.033 A 6.2 6.2 0 0 0 361.914 9.082 A 6.08 6.08 0 0 0 362.297 9.915 A 4.603 4.603 0 0 0 363.111 10.986 Q 363.868 11.719 364.917 12.036 A 7.139 7.139 0 0 0 365.248 12.128 A 7.752 7.752 0 0 0 367.139 12.354 A 8.53 8.53 0 0 0 367.358 12.351 A 7.56 7.56 0 0 0 369.361 12.036 A 4.377 4.377 0 0 0 371.167 10.986 Q 371.924 10.254 372.388 9.082 A 5.471 5.471 0 0 0 372.58 8.501 Q 372.719 7.989 372.787 7.388 A 11.021 11.021 0 0 0 372.852 6.152 A 12.054 12.054 0 0 0 372.834 5.477 Q 372.799 4.854 372.697 4.316 A 5.99 5.99 0 0 0 372.388 3.223 A 6.362 6.362 0 0 0 371.963 2.343 A 4.784 4.784 0 0 0 371.167 1.318 A 4.161 4.161 0 0 0 369.361 0.293 A 7.628 7.628 0 0 0 368.963 0.193 A 8.397 8.397 0 0 0 367.139 0 A 9.197 9.197 0 0 0 366.848 0.005 A 8.113 8.113 0 0 0 364.917 0.293 A 4.161 4.161 0 0 0 363.111 1.318 A 4.5 4.5 0 0 0 362.415 2.191 A 5.884 5.884 0 0 0 361.914 3.223 A 5.687 5.687 0 0 0 361.733 3.804 Q 361.601 4.316 361.537 4.916 Z M 123.548 4.916 A 11.627 11.627 0 0 0 123.487 6.152 Q 123.487 7.196 123.642 8.033 A 6.2 6.2 0 0 0 123.926 9.082 Q 124.366 10.254 125.147 10.986 A 4.594 4.594 0 0 0 126.953 12.036 A 6.778 6.778 0 0 0 127.819 12.242 A 8.205 8.205 0 0 0 129.2 12.354 A 8.363 8.363 0 0 0 129.634 12.342 A 7.205 7.205 0 0 0 131.397 12.036 Q 132.422 11.719 133.179 10.986 Q 133.936 10.254 134.4 9.082 A 5.471 5.471 0 0 0 134.592 8.501 Q 134.73 7.989 134.798 7.388 A 11.021 11.021 0 0 0 134.864 6.152 A 12.054 12.054 0 0 0 134.845 5.477 Q 134.81 4.854 134.709 4.316 A 5.99 5.99 0 0 0 134.4 3.223 A 6.362 6.362 0 0 0 133.974 2.343 A 4.784 4.784 0 0 0 133.179 1.318 A 4.17 4.17 0 0 0 131.397 0.293 A 7.269 7.269 0 0 0 130.775 0.145 A 8.313 8.313 0 0 0 129.2 0 Q 127.979 0 126.953 0.293 Q 125.928 0.586 125.147 1.318 A 4.409 4.409 0 0 0 124.451 2.161 A 5.613 5.613 0 0 0 123.926 3.223 A 5.687 5.687 0 0 0 123.744 3.804 Q 123.613 4.316 123.548 4.916 Z M 564.564 4.916 A 11.627 11.627 0 0 0 564.502 6.152 Q 564.502 7.196 564.657 8.033 A 6.2 6.2 0 0 0 564.942 9.082 Q 565.381 10.254 566.162 10.986 A 4.594 4.594 0 0 0 567.969 12.036 A 6.778 6.778 0 0 0 568.834 12.242 A 8.205 8.205 0 0 0 570.215 12.354 A 8.363 8.363 0 0 0 570.649 12.342 A 7.205 7.205 0 0 0 572.412 12.036 Q 573.438 11.719 574.195 10.986 Q 574.951 10.254 575.415 9.082 A 5.471 5.471 0 0 0 575.607 8.501 Q 575.746 7.989 575.814 7.388 A 11.021 11.021 0 0 0 575.879 6.152 A 12.054 12.054 0 0 0 575.861 5.477 Q 575.826 4.854 575.724 4.316 A 5.99 5.99 0 0 0 575.415 3.223 A 6.362 6.362 0 0 0 574.99 2.343 A 4.784 4.784 0 0 0 574.195 1.318 A 4.17 4.17 0 0 0 572.412 0.293 A 7.269 7.269 0 0 0 571.791 0.145 A 8.313 8.313 0 0 0 570.215 0 Q 568.994 0 567.969 0.293 Q 566.944 0.586 566.162 1.318 A 4.409 4.409 0 0 0 565.467 2.161 A 5.613 5.613 0 0 0 564.942 3.223 A 5.687 5.687 0 0 0 564.76 3.804 Q 564.628 4.316 564.564 4.916 Z" vector-effect="non-scaling-stroke"/></g></svg>
